<svg width="19" height="23" viewBox="0 0 19 23" fill="none" xmlns="http://www.w3.org/2000/svg">
<g clip-path="url(#clip0_2050_939)">
<path d="M0.766667 0.25H14.1073L18.15 4.18285V22.2682C18.15 22.5315 17.9216 22.75 17.6333 22.75H0.766667C0.478389 22.75 0.25 22.5315 0.25 22.2682V0.731818C0.25 0.468544 0.478388 0.25 0.766667 0.25Z" fill="white" stroke="#D3D5DD" stroke-width="0.5"/>
<path d="M18.4001 4.07727H14.209V0L18.4001 4.07727Z" fill="#D3D5DD"/>
<path d="M14.2093 9.67059C14.976 10.141 14.8738 10.9251 14.7716 11.2388C14.6693 11.5001 14.3116 11.9706 13.5449 11.9706C13.3916 11.9706 13.1871 11.9706 12.9827 11.866C12.3693 11.7092 11.9093 11.3956 10.7338 10.141C10.1716 10.1933 9.55822 10.2979 8.94489 10.4024C8.43378 10.507 7.97378 10.6115 7.56489 10.7683C6.18489 13.5388 5.52044 13.8524 5.26489 13.957C5.06044 14.0092 4.90711 14.0615 4.75378 14.0615C4.19155 14.0615 3.88489 13.6433 3.73155 13.4342C3.57822 13.1729 3.32267 12.4933 4.19155 11.5524C4.54933 11.1865 5.21378 10.507 6.84933 9.93195C7.05378 9.4615 7.30933 8.99104 7.51378 8.46832C7.76933 7.89332 7.97378 7.37059 8.12711 6.95241C7.46267 5.85468 7.36044 5.01831 7.36044 4.07741C7.36044 2.97968 8.12711 2.61377 8.58711 2.61377C8.89378 2.61377 9.76267 2.92741 9.81378 4.33877C9.81378 4.91377 9.76266 5.54104 9.25155 6.84786C9.60933 7.37059 10.0182 7.89332 10.6316 8.57286C10.836 8.78195 10.9893 8.99104 11.1427 9.14786C11.296 9.14786 11.4493 9.14786 11.5516 9.14786C12.7271 9.14786 13.6471 9.35695 14.2093 9.67059ZM13.8004 10.8729C13.8516 10.716 13.6982 10.6115 13.6471 10.5592C13.5449 10.507 13.0849 10.2456 12.1649 10.1933C12.7782 10.7683 12.9827 10.8729 13.2382 10.9251C13.3404 10.9251 13.4427 10.9774 13.4938 10.9774C13.6982 10.9774 13.8004 10.9251 13.8004 10.8729ZM9.86489 9.25241C9.456 8.78195 9.14933 8.36377 8.84266 7.99786V8.05013C8.74044 8.3115 8.58711 8.62513 8.48489 8.93877C8.38267 9.14786 8.28044 9.35695 8.22933 9.51377H8.28044L8.17822 9.56604C8.38267 9.51377 8.536 9.4615 8.74044 9.4615C9.14933 9.40922 9.50711 9.30468 9.86489 9.25241ZM8.63822 5.64559C8.84267 5.01831 8.84266 4.65241 8.84266 4.39104C8.84266 3.92059 8.68933 3.7115 8.58711 3.65922C8.48489 3.7115 8.43378 3.86831 8.43378 4.12968C8.38267 4.60013 8.43378 5.01831 8.63822 5.64559ZM4.856 13.016C4.90711 13.016 5.26489 12.807 6.08267 11.3956C5.41822 11.7615 5.11155 12.0751 4.90711 12.2842C4.60044 12.5979 4.60044 12.807 4.60044 12.9115L4.70267 12.9638H4.65155C4.65155 12.9638 4.70267 13.016 4.75378 13.016C4.75378 13.0683 4.80489 13.0683 4.856 13.016Z" fill="#F94646"/>
<path d="M14.3111 16.2046V16.9887H12.42V17.825H13.8511V18.6091H12.42V20.3864H11.5V16.2046H14.3111Z" fill="black"/>
<path d="M10.9381 17.4591C11.0403 17.7205 11.0403 17.9819 11.0403 18.2955C11.0403 18.6091 10.9892 18.9228 10.9381 19.1841C10.8359 19.4455 10.7337 19.6546 10.5803 19.8637C10.2225 20.2296 9.76255 20.3864 9.14921 20.3864H7.66699V16.2046H9.04699C9.40477 16.2046 9.66033 16.2569 9.91588 16.3614C10.1714 16.466 10.3759 16.6228 10.5292 16.7796C10.7337 16.9887 10.8359 17.1978 10.9381 17.4591ZM10.0692 18.8182C10.1203 18.6614 10.1203 18.5046 10.1203 18.2955C10.1203 18.0864 10.1203 17.8773 10.0692 17.7205C10.0181 17.5637 9.96699 17.4069 9.86477 17.3023C9.71144 17.0932 9.40477 16.9887 9.0981 16.9887H8.58699V19.6546H9.04699C9.25144 19.6546 9.45588 19.6023 9.5581 19.55C9.71144 19.4978 9.81366 19.3932 9.86477 19.2364C10.0181 19.0796 10.0692 18.975 10.0692 18.8182Z" fill="black"/>
<path d="M7.10442 16.8841C7.15553 17.041 7.20665 17.25 7.20665 17.4591C7.20665 17.8773 7.05331 18.191 6.79776 18.4C6.5422 18.6091 6.13331 18.7137 5.67331 18.7137H5.00887V20.3864H4.08887V16.2046H5.67331C5.87776 16.2046 6.0822 16.2046 6.28665 16.2569C6.49109 16.3091 6.64442 16.3614 6.74665 16.466C6.89998 16.5705 7.0022 16.7273 7.10442 16.8841ZM6.28665 17.5114C6.28665 17.4069 6.28665 17.3546 6.23553 17.25C6.18442 17.1978 6.18442 17.1455 6.13331 17.0932C6.03109 17.041 5.82665 16.9887 5.57109 16.9887H5.00887V17.9819H5.57109C5.67331 17.9819 5.77553 17.9819 5.82665 17.9819C5.92887 17.9819 5.97998 17.9296 6.03109 17.9296C6.0822 17.8773 6.13331 17.825 6.18442 17.7728C6.28665 17.6682 6.28665 17.616 6.28665 17.5114Z" fill="black"/>
</g>
<defs>
<clipPath id="clip0_2050_939">
<rect width="18.4" height="23" fill="white"/>
</clipPath>
</defs>
</svg>
